#!OML:ASF F:\VICON\USERDATA\INSTALL\SteveWalk\SteveWalk.ASF
:FULLY-SPECIFIED
:DEGREES
31
root -0.254403 15.8799 -37.9212 18.0447 -4.13688 1.38008
lowerback -16.6492 1.33485 -5.62063
upperback -4.97835 2.72808 -1.03358
thorax 3.78496 1.34385 2.61315
lowerneck -5.16614 -1.19935 0.432925
upperneck 8.0575 -1.75442 1.25055
head 3.52193 -0.803772 0.252486
rclavicle -3.58931e-014 -6.36111e-015
rhumerus -29.282 4.27315 -84.0165
rradius 58.2283
rwrist -12.7138
rhand -17.2891 -34.0239
rfingers 7.12502
rthumb 8.95633 -63.8138
lclavicle -3.58931e-014 -6.36111e-015
lhumerus -67.2933 35.3772 36.7592
lradius 11.8544
lwrist -46.0469
lhand -14.4196 -18.7711
lfingers 7.12502
lthumb 11.7245 10.8808
rfemur -5.13203 -4.34565 16.2446
rtibia 43.0581
rfoot 7.69648 18.9047
rtoes -16.6896
lfemur -52.3521 -0.930848 -23.8849
ltibia 36.4043
lfoot -3.48916 -1.56831
ltoes -6.91052
32
root -0.255169 15.8936 -37.6733 17.8737 -4.2939 1.74007
lowerback -16.0139 1.28774 -6.38305
upperback -5.3119 2.73137 -1.15939
thorax 3.05684 1.37695 2.87541
lowerneck -4.84485 -1.4205 0.294826
upperneck 8.27227 -2.06132 1.492
head 3.54113 -0.950033 0.343392
rclavicle -2.23928e-014 -4.77083e-015
rhumerus -30.8791 3.78969 -84.2379
rradius 57.6182
rwrist -13.3012
rhand -17.0681 -34.1368
rfingers 7.12502
rthumb 9.16967 -63.9174
lclavicle -2.23928e-014 -4.77083e-015
lhumerus -66.5547 34.3606 38.2641
lradius 12.0961
lwrist -43.9647
lhand -14.1476 -17.844
lfingers 7.12502
lthumb 11.9868 11.7928
rfemur -6.72381 -3.91595 15.678
rtibia 46.4713
rfoot 10.5117 19.6107
rtoes -17.5912
lfemur -51.8393 -0.820336 -24.4712
ltibia 37.5911
lfoot -4.60742 -1.89807
ltoes -4.0181
33
root -0.262221 15.9013 -37.4699 17.9537 -3.712 2.16921
lowerback -16.3497 0.893363 -7.01696
upperback -4.89094 2.3692 -1.30697
thorax 3.694 1.16653 3.03302
lowerneck -4.89897 -1.37675 0.491644
upperneck 7.41865 -2.01598 1.6318
head 3.25458 -0.922859 0.35774
rclavicle -7.34882e-015 1.78906e-014
rhumerus -30.8749 3.15114 -84.4076
rradius 57.0213
rwrist -12.7135
rhand -16.4672 -35.276
rfingers 7.12502
rthumb 9.74947 -65.0303
lclavicle -7.34882e-015 1.78906e-014
lhumerus -65.569 35.1675 38.7648
lradius 12.1837
lwrist -43.4658
lhand -13.7117 -17.447
lfingers 7.12502
lthumb 12.4071 12.1648
rfemur -8.7563 -4.033 15.4369
rtibia 49.9858
rfoot 13.2278 19.8897
rtoes -18.9013
lfemur -51.5942 -1.07799 -25.0735
ltibia 38.4461
lfoot -5.52727 -2.38664
ltoes -2.65749
34
root -0.236124 15.9222 -37.1979 17.3926 -4.34325 2.24248
lowerback -15.8979 1.10748 -6.89936
upperback -4.89275 2.60453 -1.57391
thorax 3.44651 1.28993 2.7112
lowerneck -4.86572 -1.30595 0.637506
upperneck 7.31584 -1.945 1.81319
head 3.21309 -0.877747 0.394737
rclavicle 3.25448e-014 -2.10712e-014
rhumerus -32.1744 2.48438 -84.7774
rradius 56.3965
rwrist -13.0856
rhand -16.3944 -36.136
rfingers 7.12502
rthumb 9.81965 -65.887
lclavicle 3.25448e-014 -2.10712e-014
lhumerus -66.2765 35.9098 36.8438
lradius 11.9917
lwrist -44.9553
lhand -12.9768 -17.3929
lfingers 7.12502
lthumb 13.1155 12.1747
rfemur -10.0018 -3.32126 14.8822
rtibia 53.1882
rfoot 16.1568 19.8708
rtoes -20.8608
lfemur -50.2296 -0.725578 -25.445
ltibia 39.2097
lfoot -6.89239 -1.91773
ltoes -2.43228
